<svg id="visual" viewBox="0 0 900 600" width="900" height="600" xmlns="http://www.w3.org/2000/svg" xmlns:xlink="http://www.w3.org/1999/xlink" version="1.1"><rect x="0" y="0" width="900" height="600" fill="#abd699"></rect><path d="M0 209L82 374L164 283L245 118L327 342L409 216L491 357L573 134L655 284L736 331L818 263L900 354L900 601L818 601L736 601L655 601L573 601L491 601L409 601L327 601L245 601L164 601L82 601L0 601Z" fill="#ffe26a"></path><path d="M0 362L82 294L164 247L245 346L327 224L409 135L491 238L573 137L655 192L736 290L818 373L900 265L900 601L818 601L736 601L655 601L573 601L491 601L409 601L327 601L245 601L164 601L82 601L0 601Z" fill="#f49a5a"></path><path d="M0 249L82 301L164 318L245 328L327 296L409 377L491 235L573 224L655 352L736 369L818 392L900 299L900 601L818 601L736 601L655 601L573 601L491 601L409 601L327 601L245 601L164 601L82 601L0 601Z" fill="#cb5c5e"></path><path d="M0 301L82 386L164 399L245 388L327 284L409 438L491 381L573 334L655 420L736 326L818 361L900 294L900 601L818 601L736 601L655 601L573 601L491 601L409 601L327 601L245 601L164 601L82 601L0 601Z" fill="#88325e"></path><path d="M0 452L82 421L164 428L245 400L327 261L409 374L491 343L573 270L655 358L736 364L818 369L900 278L900 601L818 601L736 601L655 601L573 601L491 601L409 601L327 601L245 601L164 601L82 601L0 601Z" fill="#391a4c"></path><path d="M0 368L82 299L164 321L245 434L327 315L409 440L491 424L573 296L655 345L736 358L818 465L900 379L900 601L818 601L736 601L655 601L573 601L491 601L409 601L327 601L245 601L164 601L82 601L0 601Z" fill="#16123f"></path><path d="M0 440L82 376L164 359L245 488L327 329L409 389L491 337L573 349L655 493L736 456L818 461L900 483L900 601L818 601L736 601L655 601L573 601L491 601L409 601L327 601L245 601L164 601L82 601L0 601Z" fill="#16123f"></path><path d="M0 469L82 425L164 446L245 488L327 430L409 497L491 458L573 436L655 455L736 446L818 512L900 394L900 601L818 601L736 601L655 601L573 601L491 601L409 601L327 601L245 601L164 601L82 601L0 601Z" fill="#391a4c"></path><path d="M0 433L82 454L164 515L245 514L327 476L409 456L491 504L573 478L655 525L736 484L818 433L900 503L900 601L818 601L736 601L655 601L573 601L491 601L409 601L327 601L245 601L164 601L82 601L0 601Z" fill="#88325e"></path><path d="M0 467L82 542L164 521L245 474L327 540L409 545L491 532L573 516L655 458L736 478L818 542L900 500L900 601L818 601L736 601L655 601L573 601L491 601L409 601L327 601L245 601L164 601L82 601L0 601Z" fill="#cb5c5e"></path><path d="M0 528L82 567L164 549L245 513L327 504L409 535L491 531L573 508L655 495L736 561L818 492L900 524L900 601L818 601L736 601L655 601L573 601L491 601L409 601L327 601L245 601L164 601L82 601L0 601Z" fill="#f49a5a"></path><path d="M0 567L82 537L164 561L245 568L327 572L409 535L491 530L573 590L655 568L736 550L818 563L900 584L900 601L818 601L736 601L655 601L573 601L491 601L409 601L327 601L245 601L164 601L82 601L0 601Z" fill="#ffe26a"></path></svg>